#Comment line ignore any data following # character 
#Hierarchical Translation and Rotation (.htr) file 
[Header]	
#Header keywords are followed by a single value 
FileType HTR		#Single word string
DataType HTRS		#Translation followed by rotation and scale data
FileVersion 1		#integer
NumSegments 64		#integer
NumFrames 3		#integer
DataFrameRate 30		#integer, data frame rate in this file
EulerRotationOrder ZYX
CalibrationUnits mm
RotationUnits Degrees
GlobalAxisofGravity Y
BoneLengthAxis Y
ScaleFactor 1.00
[SegmentNames&Hierarchy]
#CHILD	PARENT
Pinger_Root GLOBAL
Pelvis Pinger_Root
L_Hip Pelvis
R_Hip Pelvis
Rear_Leg01 Pelvis
Spine1 Pelvis
L_Leg01 L_Hip
L_Leg02 L_Leg01
L_Leg03 L_Leg02
L_Foot L_Leg03
L_Toe1_01 L_Foot
L_Toe2_01 L_Foot
L_Toe3_01 L_Foot
planeAlignerLeft L_Foot
L_Toe1_02 L_Toe1_01
L_Toe1_03 L_Toe1_02
L_Toe2_02 L_Toe2_01
L_Toe2_03 L_Toe2_02
L_Toe3_02 L_Toe3_01
L_Toe3_03 L_Toe3_02
planeLockWeightLeft planeAlignerLeft
R_Leg01 R_Hip
R_Leg02 R_Leg01
R_Leg03 R_Leg02
R_Foot R_Leg03
planeAlignerRight R_Foot
R_Toe1_01 R_Foot
R_Toe2_01 R_Foot
R_Toe3_01 R_Foot
planeLockWeightRight planeAlignerRight
R_Toe1_02 R_Toe1_01
R_Toe1_03 R_Toe1_02
R_Toe2_02 R_Toe2_01
R_Toe2_03 R_Toe2_02
R_Toe3_02 R_Toe3_01
R_Toe3_03 R_Toe3_02
Rear_Leg02 Rear_Leg01
Rear_Leg03 Rear_Leg02
Rear_Leg04 Rear_Leg03
Rear_Foot Rear_Leg04
planeAlignerCenter Rear_Foot
Rear_Toe1_01 Rear_Foot
Rear_Toe2_01 Rear_Foot
Rear_Toe3_01 Rear_Foot
planeLockWeightCenter planeAlignerCenter
Rear_Toe1_02 Rear_Toe1_01
Rear_Toe1_03 Rear_Toe1_02
Rear_Toe2_02 Rear_Toe2_01
Rear_Toe2_03 Rear_Toe2_02
Rear_Toe3_02 Rear_Toe3_01
Rear_Toe3_03 Rear_Toe3_02
Back_Bone Spine1
Head Spine1
Motor_Bone Back_Bone
Ping_Mechanism Back_Bone
BN_LookIK Head
bottomMouth Head
L_Mouth01 Head
L_mouthFront Head
mouthGun Head
R_Mouth01 Head
R_mouthFront Head
TopMouth Head
weapon_bone Head
[BasePosition]
#SegmentName Tx, Ty, Tz, Rx, Ry, Rz, BoneLength
Pinger_Root 0.000000 0.000000 0.000000 -90.000000 0.000000 0.000000 10.000000 
Pelvis 0.000000 0.000000 0.000000 0.000000 0.000000 0.000000 10.000000 
L_Hip 0.000000 0.000000 0.000000 0.000000 0.000000 0.000000 10.000000 
R_Hip 0.000000 0.000000 0.000000 0.000000 0.000000 0.000000 10.000000 
Rear_Leg01 0.000000 0.000000 0.000000 0.000000 0.000000 0.000000 10.000000 
Spine1 0.000000 0.000000 0.000000 0.000000 0.000000 0.000000 10.000000 
L_Leg01 0.000000 0.000000 0.000000 0.000000 0.000000 0.000000 10.000000 
L_Leg02 0.000000 0.000000 0.000000 0.000000 0.000000 0.000000 10.000000 
L_Leg03 0.000000 0.000000 0.000000 0.000000 0.000000 0.000000 10.000000 
L_Foot 0.000000 0.000000 0.000000 0.000000 0.000000 0.000000 10.000000 
L_Toe1_01 0.000000 0.000000 0.000000 0.000000 0.000000 0.000000 10.000000 
L_Toe2_01 0.000000 0.000000 0.000000 0.000000 0.000000 0.000000 10.000000 
L_Toe3_01 0.000000 0.000000 0.000000 0.000000 0.000000 0.000000 10.000000 
planeAlignerLeft 0.000000 0.000000 0.000000 0.000000 0.000000 0.000000 10.000000 
L_Toe1_02 0.000000 0.000000 0.000000 0.000000 0.000000 0.000000 10.000000 
L_Toe1_03 0.000000 0.000000 0.000000 0.000000 0.000000 0.000000 10.000000 
L_Toe2_02 0.000000 0.000000 0.000000 0.000000 0.000000 0.000000 10.000000 
L_Toe2_03 0.000000 0.000000 0.000000 0.000000 0.000000 0.000000 10.000000 
L_Toe3_02 0.000000 0.000000 0.000000 0.000000 0.000000 0.000000 10.000000 
L_Toe3_03 0.000000 0.000000 0.000000 0.000000 0.000000 0.000000 10.000000 
planeLockWeightLeft 0.000000 0.000000 0.000000 0.000000 0.000000 0.000000 10.000000 
R_Leg01 0.000000 0.000000 0.000000 0.000000 0.000000 0.000000 10.000000 
R_Leg02 0.000000 0.000000 0.000000 0.000000 0.000000 0.000000 10.000000 
R_Leg03 0.000000 0.000000 0.000000 0.000000 0.000000 0.000000 10.000000 
R_Foot 0.000000 0.000000 0.000000 0.000000 0.000000 0.000000 10.000000 
planeAlignerRight 0.000000 0.000000 0.000000 0.000000 0.000000 0.000000 10.000000 
R_Toe1_01 0.000000 0.000000 0.000000 0.000000 0.000000 0.000000 10.000000 
R_Toe2_01 0.000000 0.000000 0.000000 0.000000 0.000000 0.000000 10.000000 
R_Toe3_01 0.000000 0.000000 0.000000 0.000000 0.000000 0.000000 10.000000 
planeLockWeightRight 0.000000 0.000000 0.000000 0.000000 0.000000 0.000000 10.000000 
R_Toe1_02 0.000000 0.000000 0.000000 0.000000 0.000000 0.000000 10.000000 
R_Toe1_03 0.000000 0.000000 0.000000 0.000000 0.000000 0.000000 10.000000 
R_Toe2_02 0.000000 0.000000 0.000000 0.000000 0.000000 0.000000 10.000000 
R_Toe2_03 0.000000 0.000000 0.000000 0.000000 0.000000 0.000000 10.000000 
R_Toe3_02 0.000000 0.000000 0.000000 0.000000 0.000000 0.000000 10.000000 
R_Toe3_03 0.000000 0.000000 0.000000 0.000000 0.000000 0.000000 10.000000 
Rear_Leg02 0.000000 0.000000 0.000000 0.000000 0.000000 0.000000 10.000000 
Rear_Leg03 0.000000 0.000000 0.000000 0.000000 0.000000 0.000000 10.000000 
Rear_Leg04 0.000000 0.000000 0.000000 0.000000 0.000000 0.000000 10.000000 
Rear_Foot 0.000000 0.000000 0.000000 0.000000 0.000000 0.000000 10.000000 
planeAlignerCenter 0.000000 0.000000 0.000000 0.000000 0.000000 0.000000 10.000000 
Rear_Toe1_01 0.000000 0.000000 0.000000 0.000000 0.000000 0.000000 10.000000 
Rear_Toe2_01 0.000000 0.000000 0.000000 0.000000 0.000000 0.000000 10.000000 
Rear_Toe3_01 0.000000 0.000000 0.000000 0.000000 0.000000 0.000000 10.000000 
planeLockWeightCenter 0.000000 0.000000 0.000000 0.000000 0.000000 0.000000 10.000000 
Rear_Toe1_02 0.000000 0.000000 0.000000 0.000000 0.000000 0.000000 10.000000 
Rear_Toe1_03 0.000000 0.000000 0.000000 0.000000 0.000000 0.000000 10.000000 
Rear_Toe2_02 0.000000 0.000000 0.000000 0.000000 0.000000 0.000000 10.000000 
Rear_Toe2_03 0.000000 0.000000 0.000000 0.000000 0.000000 0.000000 10.000000 
Rear_Toe3_02 0.000000 0.000000 0.000000 0.000000 0.000000 0.000000 10.000000 
Rear_Toe3_03 0.000000 0.000000 0.000000 0.000000 0.000000 0.000000 10.000000 
Back_Bone 0.000000 0.000000 0.000000 0.000000 0.000000 0.000000 10.000000 
Head 0.000000 0.000000 0.000000 0.000000 0.000000 0.000000 10.000000 
Motor_Bone 0.000000 0.000000 0.000000 0.000000 0.000000 0.000000 10.000000 
Ping_Mechanism 0.000000 0.000000 0.000000 0.000000 0.000000 0.000000 10.000000 
BN_LookIK 0.000000 0.000000 0.000000 0.000000 0.000000 0.000000 10.000000 
bottomMouth 0.000000 0.000000 0.000000 0.000000 0.000000 0.000000 10.000000 
L_Mouth01 0.000000 0.000000 0.000000 0.000000 0.000000 0.000000 10.000000 
L_mouthFront 0.000000 0.000000 0.000000 0.000000 0.000000 0.000000 10.000000 
mouthGun 0.000000 0.000000 0.000000 0.000000 0.000000 0.000000 10.000000 
R_Mouth01 0.000000 0.000000 0.000000 0.000000 0.000000 0.000000 10.000000 
R_mouthFront 0.000000 0.000000 0.000000 0.000000 0.000000 0.000000 10.000000 
TopMouth 0.000000 0.000000 0.000000 0.000000 0.000000 0.000000 10.000000 
weapon_bone 0.000000 0.000000 0.000000 0.000000 0.000000 0.000000 10.000000 
#Beginning of Data. Separated by tabs
#Fr	Tx	Ty	Tz	Rx	Ry	Rz	SF
[Pinger_Root]
41 -2499.999756 -0.000690 0.000000 -0.000075 -0.000000 -0.000020 2499.999756
42 -2499.999756 -0.000690 0.000000 -0.000075 -0.000000 -0.000020 2499.999756
43 -2499.999756 -0.000690 0.000000 -0.000075 -0.000000 -0.000020 2499.999756
[Pelvis]
41 -88.151756 656.137817 4412.198730 -112.659698 -74.942513 149.550949 4461.589844
42 -111.947884 691.393799 4410.795898 -111.567795 -73.707909 144.859283 4466.058105
43 -132.211609 722.538879 4405.535156 -110.889366 -72.454109 140.569885 4466.350098
[L_Hip]
41 5.766392 125.831482 872.656799 -178.253311 -81.787758 87.381340 881.701050
42 5.766392 125.831482 872.656799 -178.253311 -81.787758 87.381340 881.701050
43 5.766392 125.831482 872.656799 -178.253311 -81.787758 87.381340 881.701050
[R_Hip]
41 5.765438 125.836372 -872.654907 -1.746690 81.787712 87.381248 881.699829
42 5.765438 125.836372 -872.654907 -1.746690 81.787712 87.381248 881.699829
43 5.765438 125.836372 -872.654907 -1.746690 81.787712 87.381248 881.699829
[Rear_Leg01]
41 -192.298416 -925.602966 -0.001907 -178.305725 6.338275 -162.152466 945.367432
42 -192.298416 -925.602966 -0.001907 179.336014 8.413956 -163.022736 945.367432
43 -192.298416 -925.602966 -0.001907 177.077454 10.688868 -163.971939 945.367432
[Spine1]
41 290.604584 5.007505 0.000477 -23.036968 18.090044 9.812843 290.647736
42 290.604584 5.007505 0.000477 -19.786335 16.867685 9.041067 290.647736
43 290.604584 5.007505 0.000477 -16.538738 15.689008 8.203241 290.647736
[L_Leg01]
41 761.932007 -0.002384 -0.069261 114.493980 -51.821304 -97.238136 761.932068
42 761.932007 -0.002384 -0.069261 111.711922 -66.162979 -100.466125 761.932068
43 761.932007 -0.002384 -0.069261 104.409554 -79.890457 -97.582809 761.932068
[L_Leg02]
41 1441.140503 -0.000954 -0.000715 0.361429 -0.106752 -91.272514 1441.140503
42 1441.140503 -0.000954 -0.000715 -0.618958 0.107097 -101.582771 1441.140503
43 1441.140503 -0.000954 -0.000715 -1.092106 0.366439 -108.781738 1441.140503
[L_Leg03]
41 1686.963989 -0.000715 -0.000954 -0.027419 0.010421 117.925606 1686.963989
42 1686.963989 -0.000715 -0.000954 -0.004564 0.000871 111.606888 1686.963989
43 1686.963989 -0.000715 -0.000954 0.022288 -0.009813 104.147774 1686.963989
[L_Foot]
41 3041.570068 -30.715107 11.297464 8.729201 7.551632 40.602318 3041.746094
42 3041.570068 -30.715107 11.297464 6.965293 6.470006 39.649975 3041.746094
43 3041.570068 -30.715107 11.297464 3.575891 5.366222 33.840477 3041.746094
[L_Toe1_01]
41 -188.216690 -224.732346 -21.137953 89.117638 -2.941617 -137.964706 293.899567
42 -188.216690 -224.732346 -21.137953 89.224945 -3.249309 -137.394501 293.899567
43 -188.216690 -224.732346 -21.137953 89.760727 -4.790224 -151.057648 293.899567
[L_Toe2_01]
41 200.746536 -219.926590 148.838394 -73.775612 -4.269358 -72.061913 332.896027
42 200.746536 -219.926590 148.838394 -73.883583 -4.347175 -71.347153 332.896027
43 200.746536 -219.926590 148.838394 -74.856728 -8.379995 -61.319630 332.896027
[L_Toe3_01]
41 188.832520 -219.859131 -191.078659 -110.012329 2.569884 -72.776237 347.140900
42 188.832520 -219.859131 -191.078659 -109.765205 2.260355 -72.061615 347.140900
43 188.832520 -219.859131 -191.078659 -109.927124 10.617788 -64.304527 347.140900
[planeAlignerLeft]
41 160.423523 -768.665344 10.167104 0.000000 -89.884651 -90.107910 785.293274
42 172.534622 -763.283997 16.149506 0.000000 -89.881310 -90.110580 782.707764
43 172.647095 -756.222168 23.275953 0.000000 -89.871796 -90.113220 776.028809
[L_Toe1_02]
41 413.761139 0.000477 0.000000 0.001479 -15.026189 0.001479 413.761139
42 413.761139 0.000477 0.000000 0.001484 -14.543051 0.001484 413.761139
43 413.761139 0.000477 0.000000 0.001436 -19.664717 0.001436 413.761139
[L_Toe1_03]
41 464.317322 0.000358 -0.000089 -179.997650 73.967422 -179.994110 464.317322
42 464.317322 0.000358 -0.000089 -179.997986 72.528778 -179.994446 464.317322
43 464.317322 0.000358 -0.000089 -179.961456 88.365181 -179.957962 464.317322
[L_Toe2_02]
41 342.235809 -0.000477 0.000238 0.001182 -76.257652 0.001182 342.235809
42 342.235809 -0.000477 0.000238 0.001183 -75.791702 0.001183 342.235809
43 342.235809 -0.000477 0.000238 0.001190 -70.701294 0.001190 342.235809
[L_Toe2_03]
41 420.210846 -0.000715 0.000000 -179.992035 83.227402 -179.988525 420.210846
42 420.210846 -0.000715 0.000000 -179.989456 84.637573 -179.985962 420.210846
43 420.210846 -0.000715 0.000000 0.015319 81.212532 0.015319 420.210846
[L_Toe3_02]
41 329.270111 0.000954 0.000000 0.001178 -80.334503 0.001178 329.270111
42 329.270111 0.000954 0.000000 0.001178 -79.982353 0.001178 329.270111
43 329.270111 0.000954 0.000000 0.001179 -79.331955 0.001179 329.270111
[L_Toe3_03]
41 439.137451 -0.001907 0.000954 -179.995529 79.426140 -179.992004 439.137451
42 439.137451 -0.001907 0.000954 -179.994781 80.555939 -179.991272 439.137451
43 439.137451 -0.001907 0.000954 -179.992523 82.864136 -179.989014 439.137451
[planeLockWeightLeft]
41 156.247543 -0.000305 -0.000305 -0.011826 -0.004376 0.005620 156.247543
42 499.994812 -0.000305 -0.000248 -0.011826 -0.004376 0.005620 499.994812
43 843.744995 -0.000305 -0.000191 -0.011826 -0.004376 0.005620 843.744995
[R_Leg01]
41 761.455627 -0.001907 -0.000358 120.882858 -10.979794 65.418610 761.455688
42 761.455627 -0.001907 -0.000358 120.270264 -15.974790 63.900097 761.455688
43 761.455627 -0.001907 -0.000358 120.065918 -20.426123 62.395508 761.455688
[R_Leg02]
41 1441.140625 0.000000 -0.000238 -0.096120 0.024627 -108.347977 1441.140625
42 1441.140625 0.000000 -0.000238 -0.150254 0.022218 -111.706360 1441.140625
43 1441.140625 0.000000 -0.000238 -0.200077 0.014994 -114.498177 1441.140625
[R_Leg03]
41 1686.963989 0.000954 0.001431 0.023373 -0.009091 116.472610 1686.963989
42 1686.963989 0.000954 0.001431 0.026218 -0.009968 117.308212 1686.963989
43 1686.963989 0.000954 0.001431 0.029050 -0.010887 118.143669 1686.963989
[R_Foot]
41 3041.560059 -30.531288 -11.204481 33.167339 -37.364708 48.882130 3041.734131
42 3041.560059 -30.531288 -11.204481 32.040981 -35.832813 49.551060 3041.734131
43 3041.560059 -30.531288 -11.204481 30.957344 -34.290852 50.170948 3041.734131
[planeAlignerRight]
41 -41.837482 -759.436584 -109.118858 0.000000 -89.878052 -90.081230 768.375732
42 -40.156887 -784.013428 -96.586189 0.000000 -89.874886 -90.083138 790.960510
43 -37.692299 -800.920776 -84.791435 0.000000 -89.871796 -90.085030 806.278137
[R_Toe1_01]
41 -188.383347 -224.864899 21.052242 91.056168 0.993670 -148.728226 294.101532
42 -188.383347 -224.864899 21.052242 91.076958 0.393931 -146.765091 294.101532
43 -188.383347 -224.864899 21.052242 91.073784 -0.157950 -145.468948 294.101532
[R_Toe2_01]
41 200.637817 -220.002121 -148.787384 -101.617737 3.568663 -53.085655 332.857574
42 200.637817 -220.002121 -148.787384 -101.642395 2.746031 -54.220253 332.857574
43 200.637817 -220.002121 -148.787384 -101.601639 2.037142 -54.927959 332.857574
[R_Toe3_01]
41 188.606735 -220.092957 191.126343 -60.174843 -30.509710 -69.086205 347.192566
42 188.606735 -220.092957 191.126343 -59.700012 -30.049841 -70.551468 347.192566
43 188.606735 -220.092957 191.126343 -59.381077 -29.856895 -71.421326 347.192566
[planeLockWeightRight]
41 999.999573 0.000527 -0.000266 -0.011823 -0.004379 -0.000027 999.999573
42 999.999573 0.000522 -0.000275 -0.011823 -0.004379 -0.000027 999.999573
43 999.999573 0.000516 -0.000284 -0.011823 -0.004379 -0.000027 999.999573
[R_Toe1_02]
41 413.762085 0.000477 -0.000119 0.001385 -25.870827 0.001385 413.762085
42 413.762085 0.000477 -0.000119 0.001386 -25.671354 0.001386 413.762085
43 413.762085 0.000477 -0.000119 0.001388 -25.471878 0.001388 413.762085
[R_Toe1_03]
41 464.317810 0.000000 0.001088 0.003321 48.594135 0.003321 464.317810
42 464.317810 0.000000 0.001088 0.003062 44.933464 0.003062 464.317810
43 464.317810 0.000000 0.001088 0.002920 42.604305 0.002920 464.317810
[R_Toe2_02]
41 342.234741 -0.000954 0.000238 0.001200 -65.707626 0.001200 342.234741
42 342.234741 -0.000954 0.000238 0.001204 -64.146294 0.001204 342.234741
43 342.234741 -0.000954 0.000238 0.001208 -62.584995 0.001208 342.234741
[R_Toe2_03]
41 420.210846 0.000715 -0.000268 -0.002159 70.833595 0.000504 420.210846
42 420.210846 0.000715 -0.000268 -0.004728 67.492729 -0.001162 420.210846
43 420.210846 0.000715 -0.000268 -0.004448 65.018219 -0.000867 420.210846
[R_Toe3_02]
41 329.270355 -0.000477 -0.000954 -0.000582 -71.983429 -0.000582 329.270355
42 329.270355 -0.000477 -0.000954 -0.001472 -69.830513 -0.001472 329.270355
43 329.270355 -0.000477 -0.000954 -0.002368 -67.679146 -0.002368 329.270355
[R_Toe3_03]
41 439.137939 0.000238 0.001431 0.010828 77.555138 0.010828 439.137939
42 439.137939 0.000238 0.001431 0.007907 72.928024 0.007907 439.137939
43 439.137939 0.000238 0.001431 0.006461 69.070274 0.006461 439.137939
[Rear_Leg02]
41 1162.777710 -0.029802 0.005960 -41.293304 26.616955 -123.343452 1162.777710
42 1162.777710 -0.029802 0.005960 -40.292740 28.450859 -120.320175 1162.777710
43 1162.777710 -0.029802 0.005960 -39.323215 29.943945 -117.642197 1162.777710
[Rear_Leg03]
41 607.192505 -0.013351 -0.073195 0.010059 -0.005916 77.277657 607.192505
42 607.192505 -0.013351 -0.073195 0.010092 -0.005858 76.621414 607.192505
43 607.192505 -0.013351 -0.073195 0.010125 -0.005800 75.965218 607.192505
[Rear_Leg04]
41 995.874512 -0.020504 -0.011921 -0.043110 -0.017500 89.969780 995.874573
42 995.874512 -0.020504 -0.011921 -0.042827 -0.018196 88.118385 995.874573
43 995.874512 -0.020504 -0.011921 -0.042522 -0.018883 86.266975 995.874573
[Rear_Foot]
41 3096.176270 -0.067472 -0.041425 77.102142 40.711834 -129.982742 3096.176270
42 3096.176270 -0.067472 -0.041425 76.079720 40.280415 -131.257660 3096.176270
43 3096.176270 -0.067472 -0.041425 75.051933 39.973034 -132.260651 3096.176270
[planeAlignerCenter]
41 1.822218 84.794952 -712.692932 0.001666 -0.001653 179.548279 717.721863
42 1.486898 85.836884 -710.647278 0.001663 -0.001656 179.773315 715.814026
43 1.151586 86.878799 -708.601685 0.001660 -0.001660 179.998337 713.908691
[Rear_Toe1_01]
41 0.653352 83.966492 -371.173737 0.044284 22.668011 89.434898 380.553192
42 0.653352 83.966492 -371.173737 0.057928 22.472998 89.902641 380.553192
43 0.653352 83.966492 -371.173737 0.065925 22.419449 90.032753 380.553192
[Rear_Toe2_01]
41 178.200760 -294.826019 -362.060547 0.983410 47.329937 -70.274719 499.765686
42 178.200760 -294.826019 -362.060547 1.049835 47.178928 -69.907036 499.765686
43 178.200760 -294.826019 -362.060547 1.114651 47.027630 -69.540649 499.765686
[Rear_Toe3_01]
41 -153.359680 -308.780914 -362.060852 -1.480311 47.332489 -113.599678 499.952881
42 -153.359680 -308.780914 -362.060852 -1.433111 47.185238 -113.289078 499.952881
43 -153.359680 -308.780914 -362.060852 -1.387213 47.037788 -112.979485 499.952881
[planeLockWeightCenter]
41 1000.000122 0.000728 -0.000186 -0.011814 -0.004373 -0.000015 1000.000122
42 1000.000122 0.000734 -0.000188 -0.011814 -0.004373 -0.000015 1000.000122
43 1000.000122 0.000739 -0.000190 -0.011814 -0.004373 -0.000015 1000.000122
[Rear_Toe1_02]
41 379.707825 0.194073 0.000477 -0.003718 -33.545559 0.002854 379.707855
42 379.707825 0.194073 0.000477 -0.003928 -33.544418 0.002917 379.707855
43 379.707825 0.194073 0.000477 -0.004138 -33.543270 0.002981 379.707855
[Rear_Toe1_03]
41 500.129700 0.165701 0.000119 0.007101 70.973312 0.007101 500.129761
42 500.129700 0.165701 0.000119 0.007071 70.890884 0.007071 500.129761
43 500.129700 0.165701 0.000119 0.007040 70.808418 0.007040 500.129761
[Rear_Toe2_02]
41 340.494507 0.000238 -0.000954 0.001175 -85.498894 0.001175 340.494507
42 340.494507 0.000238 -0.000954 0.001174 -85.640633 0.001174 340.494507
43 340.494507 0.000238 -0.000954 0.001174 -85.782066 0.001174 340.494507
[Rear_Toe2_03]
41 433.103577 0.000000 0.000238 179.986435 80.075638 179.986435 433.103546
42 433.103577 0.000000 0.000238 179.987320 79.387634 179.987320 433.103546
43 433.103577 0.000000 0.000238 179.987534 79.201416 179.987534 433.103546
[Rear_Toe3_02]
41 340.494141 -0.000358 -0.000477 0.001175 -85.330910 0.001175 340.494171
42 340.494141 -0.000358 -0.000477 0.001175 -85.505951 0.001175 340.494171
43 340.494141 -0.000358 -0.000477 0.001174 -85.680855 0.001174 340.494171
[Rear_Toe3_03]
41 433.103577 0.001431 -0.000238 -179.995117 80.077087 -179.991608 433.103546
42 433.103577 0.001431 -0.000238 -179.995316 79.777405 -179.991791 433.103546
43 433.103577 0.001431 -0.000238 -179.995483 79.477654 -179.991974 433.103546
[Back_Bone]
41 1312.175781 -701.934692 0.000954 -1.873882 3.184465 -86.519661 1488.125488
42 1312.175781 -701.934692 0.000954 -1.287845 3.191297 -85.834045 1488.125488
43 1312.175781 -701.934692 0.000954 -0.701729 3.191126 -85.148376 1488.125488
[Head]
41 1406.159424 809.709290 0.001431 -8.623479 2.792261 -0.591631 1622.625488
42 1406.159424 809.709290 0.001431 -8.512666 2.724998 -0.452766 1622.625488
43 1406.159424 809.709290 0.001431 -8.402022 2.657469 -0.314039 1622.625488
[Motor_Bone]
41 1158.364380 -417.834747 0.000477 2.270557 -1.149508 -107.133392 1231.419434
42 1158.364380 -417.834747 0.000477 1.115501 -1.114906 -107.103577 1231.419434
43 1158.364380 -417.834747 0.000477 -1.031280 -1.047917 -107.028992 1231.419434
[Ping_Mechanism]
41 1265.934692 -444.638641 -56.548916 0.000103 -0.000053 82.120995 1342.941528
42 1273.902832 -448.297516 -55.031544 0.000103 -0.000053 82.120995 1351.601807
43 1281.870728 -451.956421 -53.514111 0.000103 -0.000053 82.120995 1360.265015
[BN_LookIK]
41 193.241119 1380.371704 -0.002861 0.000000 89.965736 -31.038179 1393.832153
42 193.241119 1380.371704 -0.002861 0.000000 89.965736 -31.038179 1393.832153
43 193.241119 1380.371704 -0.002861 0.000000 89.965736 -31.038179 1393.832153
[bottomMouth]
41 -435.092926 615.759399 -0.000954 -0.000022 0.000016 73.527184 753.966492
42 -435.092926 615.759399 -0.000954 -0.000022 0.000016 73.527184 753.966492
43 -435.092926 615.759399 -0.000954 -0.000022 0.000016 73.527184 753.966492
[L_Mouth01]
41 554.440979 7.658243 838.222046 150.204178 23.759130 109.605339 1005.027161
42 554.440979 7.658243 838.222046 150.204178 23.759130 109.605339 1005.027161
43 554.440979 7.658243 838.222046 150.204178 23.759130 109.605339 1005.027161
[L_mouthFront]
41 551.629089 934.514771 339.150421 0.000081 2.804060 79.119301 1136.941284
42 551.629089 934.514771 339.150421 0.000081 2.804060 79.119301 1136.941284
43 551.629089 934.514771 339.150421 0.000081 2.804060 79.119301 1136.941284
[mouthGun]
41 55.332661 1627.420898 0.000000 0.000023 0.000009 -11.038128 1628.361328
42 55.332661 1627.420898 0.000000 0.000023 0.000009 -11.038128 1628.361328
43 55.332661 1627.420898 0.000000 0.000023 0.000009 -11.038128 1628.361328
[R_Mouth01]
41 554.442383 7.659197 -838.223938 29.795891 -23.759109 109.605331 1005.029541
42 554.442383 7.659197 -838.223938 29.795891 -23.759109 109.605331 1005.029541
43 554.442383 7.659197 -838.223938 29.795891 -23.759109 109.605331 1005.029541
[R_mouthFront]
41 551.629089 934.514282 -339.151367 0.000029 -2.803930 79.119133 1136.941162
42 551.629089 934.514282 -339.151367 0.000029 -2.803930 79.119133 1136.941162
43 551.629089 934.514282 -339.151367 0.000029 -2.803930 79.119133 1136.941162
[TopMouth]
41 461.269867 -56.106091 -0.008583 -0.000059 -0.000268 92.025169 464.669525
42 461.269867 -56.106091 -0.008583 -0.000059 -0.000268 92.025169 464.669525
43 461.269867 -56.106091 -0.008583 -0.000059 -0.000268 92.025169 464.669525
[weapon_bone]
41 -987.239868 1448.372803 0.001431 0.000000 89.965736 -31.038221 1752.833740
42 -987.239868 1448.372803 0.001431 0.000000 89.965736 -31.038221 1752.833740
43 -987.239868 1448.372803 0.001431 0.000000 89.965736 -31.038221 1752.833740
